<?xml version="1.0" encoding="UTF-8"?>
<svg xmlns="http://www.w3.org/2000/svg" xmlns:xlink="http://www.w3.org/1999/xlink" viewBox="0 0 50 50" width="50px" height="50px">
<g id="surface1264121">
<path style=" stroke:none;fill-rule:nonzero;fill:rgb(27.843139%,69.803923%,61.56863%);fill-opacity:1;" d="M 35.511719 26.050781 C 35.40625 25.8125 35.332031 25.65625 35.324219 25.613281 L 35.324219 25.605469 C 34.65625 24.09375 34.019531 22.675781 33.40625 21.375 C 33.324219 21.1875 33.230469 21 33.144531 20.8125 C 33.042969 20.582031 32.9375 20.363281 32.832031 20.144531 C 30.3125 14.75 28.40625 11.300781 27.167969 9.855469 C 26.886719 9.519531 26.488281 9.375 26.042969 9.375 C 25.59375 9.375 25.199219 9.519531 24.917969 9.855469 C 23.675781 11.300781 21.769531 14.75 19.25 20.144531 C 19.144531 20.363281 19.042969 20.582031 18.9375 20.8125 C 18.855469 21 18.761719 21.1875 18.675781 21.375 C 18.0625 22.675781 17.425781 24.09375 16.761719 25.605469 L 16.761719 25.613281 C 16.75 25.65625 16.675781 25.8125 16.574219 26.050781 C 16.003906 27.335938 14.371094 31.0625 13.632812 32.726562 L 14.9375 32.210938 C 16.554688 31.546875 18.195312 30.925781 19.824219 30.347656 L 19.855469 30.332031 C 19.992188 30 20.644531 28.332031 20.769531 28.011719 C 21.082031 27.230469 21.386719 26.480469 21.675781 25.761719 C 21.707031 25.699219 21.730469 25.625 21.761719 25.5625 C 22.074219 24.792969 22.375 24.050781 22.667969 23.355469 C 22.730469 23.199219 22.800781 23.050781 22.863281 22.894531 C 22.96875 22.65625 23.0625 22.425781 23.15625 22.199219 C 23.3125 21.832031 23.457031 21.488281 23.59375 21.15625 C 23.769531 20.75 23.9375 20.363281 24.105469 19.988281 C 24.386719 19.355469 24.636719 18.78125 24.855469 18.28125 C 24.9375 18.082031 25.03125 17.894531 25.105469 17.71875 C 25.363281 17.144531 25.574219 16.6875 25.738281 16.332031 C 25.886719 16 25.988281 15.78125 26.042969 15.671875 C 26.09375 15.785156 26.195312 16 26.34375 16.332031 C 26.511719 16.6875 26.71875 17.144531 26.980469 17.71875 C 27.050781 17.894531 27.144531 18.082031 27.230469 18.28125 C 27.449219 18.78125 27.699219 19.355469 27.980469 19.988281 C 28.144531 20.363281 28.3125 20.75 28.488281 21.15625 C 28.625 21.488281 28.769531 21.832031 28.925781 22.199219 C 29.019531 22.425781 29.113281 22.65625 29.21875 22.894531 C 29.28125 23.050781 29.355469 23.199219 29.417969 23.355469 C 29.707031 24.050781 30.011719 24.792969 30.324219 25.5625 C 30.355469 25.625 30.375 25.699219 30.40625 25.761719 C 30.699219 26.480469 31 27.230469 31.3125 28.011719 C 31.4375 28.332031 32.089844 30 32.226562 30.332031 L 32.257812 30.347656 C 33.886719 30.925781 35.527344 31.546875 37.144531 32.210938 L 38.453125 32.726562 C 37.710938 31.0625 36.078125 27.335938 35.511719 26.050781 Z M 35.511719 26.050781 "/>
<path style=" stroke:none;fill-rule:nonzero;fill:rgb(16.862746%,78.823531%,42.352942%);fill-opacity:1;" d="M 18.550781 36.0625 C 17.792969 39.875 17.707031 43.75 17.707031 43.75 L 14.582031 45.832031 L 9.375 45.832031 L 12.46875 36.0625 Z M 18.550781 36.0625 "/>
<path style=" stroke:none;fill-rule:nonzero;fill:rgb(14.901961%,62.352943%,53.725493%);fill-opacity:1;" d="M 17.738281 36.0625 C 16.675781 39.113281 15.542969 42.574219 14.582031 45.832031 L 9.375 45.832031 L 12.46875 36.0625 Z M 17.738281 36.0625 "/>
<path style=" stroke:none;fill-rule:nonzero;fill:rgb(16.862746%,78.823531%,42.352942%);fill-opacity:1;" d="M 42.707031 45.832031 L 37.5 45.832031 L 34.375 43.75 C 34.375 43.75 34.25 37.625 32.8125 33.199219 C 32.800781 33.15625 32.78125 33.113281 32.769531 33.074219 L 38.667969 33.074219 Z M 42.707031 45.832031 "/>
<path style=" stroke:none;fill-rule:nonzero;fill:rgb(14.117648%,66.274512%,57.254905%);fill-opacity:1;" d="M 32.832031 20.144531 C 32.9375 20.363281 33.042969 20.582031 33.144531 20.8125 C 33.230469 21 33.324219 21.1875 33.40625 21.375 C 34.019531 22.675781 34.65625 24.09375 35.324219 25.605469 L 35.324219 25.613281 C 35.332031 25.65625 35.40625 25.8125 35.511719 26.050781 C 35.582031 26.21875 35.667969 26.417969 35.769531 26.644531 C 35.800781 26.707031 35.832031 26.792969 35.863281 26.863281 C 35.957031 27.0625 36.050781 27.28125 36.15625 27.511719 C 36.207031 27.636719 36.261719 27.761719 36.324219 27.894531 C 36.699219 28.738281 37.113281 29.699219 37.511719 30.59375 C 37.636719 30.886719 37.761719 31.175781 37.886719 31.449219 C 37.957031 31.625 38.03125 31.792969 38.105469 31.949219 C 38.234375 32.246094 38.347656 32.5 38.453125 32.730469 L 37.144531 32.210938 C 35.519531 31.542969 33.863281 30.917969 32.226562 30.335938 C 31.808594 29.269531 31.378906 28.175781 31.3125 28.011719 C 31 27.230469 30.699219 26.480469 30.40625 25.761719 C 30.375 25.699219 30.355469 25.625 30.324219 25.5625 C 30.011719 24.792969 29.707031 24.050781 29.417969 23.355469 C 29.355469 23.199219 29.28125 23.050781 29.21875 22.894531 C 29.113281 22.65625 29.019531 22.425781 28.925781 22.199219 C 28.769531 21.832031 28.625 21.488281 28.488281 21.15625 C 28.3125 20.75 28.144531 20.363281 27.980469 19.988281 C 27.699219 19.355469 27.449219 18.78125 27.230469 18.28125 C 27.144531 18.082031 27.050781 17.894531 26.980469 17.71875 C 26.71875 17.144531 26.511719 16.6875 26.34375 16.332031 Z M 32.832031 20.144531 "/>
<path style=" stroke:none;fill-rule:nonzero;fill:rgb(14.901961%,62.352943%,53.725493%);fill-opacity:1;" d="M 42.707031 45.832031 L 37.5 45.832031 C 36.1875 41.355469 34.71875 37.019531 33.269531 33.105469 C 33.269531 33.105469 33.269531 33.09375 33.261719 33.074219 L 38.667969 33.074219 Z M 42.707031 45.832031 "/>
<path style=" stroke:none;fill-rule:nonzero;fill:rgb(15.686275%,58.823532%,45.09804%);fill-opacity:1;" d="M 35.761719 26.53125 L 35.40625 25.730469 L 34.554688 25.941406 C 30.347656 26.992188 22.347656 29.167969 14.9375 32.207031 L 13.636719 32.722656 L 13.46875 33.144531 C 12.773438 34.789062 12.117188 36.351562 11.519531 37.796875 L 12.761719 37.5 C 12.761719 37.5 19.269531 35.675781 37.628906 33.332031 L 38.636719 33.195312 C 37.726562 31.042969 36.75 28.777344 35.761719 26.53125 Z M 35.761719 26.53125 "/>
<path style=" stroke:none;fill-rule:nonzero;fill:rgb(14.117648%,66.274512%,57.254905%);fill-opacity:1;" d="M 19.25 20.144531 C 19.144531 20.363281 19.042969 20.582031 18.9375 20.8125 C 18.855469 21 18.761719 21.1875 18.675781 21.375 C 18.0625 22.675781 17.425781 24.09375 16.761719 25.605469 L 16.761719 25.613281 C 16.75 25.65625 16.675781 25.8125 16.574219 26.050781 C 16.5 26.21875 16.417969 26.417969 16.3125 26.644531 C 16.28125 26.707031 16.25 26.792969 16.21875 26.863281 C 16.125 27.0625 16.03125 27.28125 15.925781 27.511719 C 15.875 27.636719 15.824219 27.761719 15.761719 27.894531 C 15.386719 28.738281 14.96875 29.699219 14.574219 30.59375 C 14.449219 30.886719 14.324219 31.175781 14.199219 31.449219 C 14.125 31.625 14.050781 31.792969 13.980469 31.949219 C 13.847656 32.246094 13.734375 32.5 13.632812 32.730469 L 14.9375 32.210938 C 16.566406 31.542969 18.21875 30.917969 19.855469 30.335938 C 20.277344 29.269531 20.707031 28.175781 20.769531 28.011719 C 21.082031 27.230469 21.386719 26.480469 21.675781 25.761719 C 21.707031 25.699219 21.730469 25.625 21.761719 25.5625 C 22.074219 24.792969 22.375 24.050781 22.667969 23.355469 C 22.730469 23.199219 22.800781 23.050781 22.863281 22.894531 C 22.96875 22.65625 23.0625 22.425781 23.15625 22.199219 C 23.3125 21.832031 23.457031 21.488281 23.59375 21.15625 C 23.769531 20.75 23.9375 20.363281 24.105469 19.988281 C 24.386719 19.355469 24.636719 18.78125 24.855469 18.28125 C 24.9375 18.082031 25.03125 17.894531 25.105469 17.71875 C 25.363281 17.144531 25.574219 16.6875 25.738281 16.332031 Z M 19.25 20.144531 "/>
<path style=" stroke:none;fill-rule:nonzero;fill:rgb(14.901961%,62.352943%,53.725493%);fill-opacity:1;" d="M 16.574219 26.050781 C 16.5 26.21875 16.417969 26.417969 16.3125 26.644531 C 16.28125 26.707031 16.25 26.792969 16.21875 26.863281 C 16.125 27.0625 16.03125 27.28125 15.925781 27.511719 C 15.875 27.636719 15.8125 27.761719 15.761719 27.894531 C 15.386719 28.738281 14.96875 29.699219 14.574219 30.59375 C 14.449219 30.886719 14.324219 31.175781 14.199219 31.449219 C 14.125 31.625 14.050781 31.792969 13.980469 31.949219 C 13.890625 32.152344 13.753906 32.46875 13.640625 32.726562 L 14.9375 32.210938 C 16.5625 31.542969 18.21875 30.917969 19.855469 30.335938 C 20.273438 29.269531 20.707031 28.175781 20.769531 28.011719 C 21.082031 27.230469 21.382812 26.480469 21.675781 25.761719 C 21.707031 25.699219 21.726562 25.625 21.757812 25.5625 C 22.070312 24.792969 22.375 24.050781 22.664062 23.355469 C 22.726562 23.199219 22.800781 23.050781 22.863281 22.894531 C 22.96875 22.65625 23.0625 22.425781 23.15625 22.199219 Z M 16.574219 26.050781 "/>
<path style=" stroke:none;fill-rule:nonzero;fill:rgb(18.431373%,82.745099%,56.862748%);fill-opacity:1;" d="M 42.707031 45.832031 L 44.792969 44.792969 C 44.792969 44.792969 43.738281 39.25 41.488281 31.34375 C 39.269531 23.550781 35.90625 13.480469 31.25 4.167969 L 20.832031 4.167969 C 16.175781 13.480469 12.8125 23.550781 10.59375 31.34375 C 8.34375 39.25 7.292969 44.792969 7.292969 44.792969 L 9.375 45.832031 C 9.375 45.832031 11.574219 40.285156 14.429688 33.550781 C 22.152344 30.277344 30.851562 27.941406 34.808594 26.953125 C 38.902344 36.234375 42.707031 45.832031 42.707031 45.832031 Z M 15.710938 30.550781 C 19.289062 22.242188 23.472656 13.144531 25.667969 10.574219 C 25.761719 10.460938 25.90625 10.417969 26.042969 10.417969 C 26.175781 10.417969 26.320312 10.460938 26.417969 10.570312 C 27.761719 12.148438 29.851562 16.164062 32.089844 20.953125 Z M 15.710938 30.550781 "/>
<path style=" stroke:none;fill-rule:nonzero;fill:rgb(20.784314%,89.803922%,32.156864%);fill-opacity:1;" d="M 28.125 4.167969 C 28.125 4.167969 35.863281 15.625 41.457031 31.25 C 41.46875 31.28125 41.480469 31.3125 41.488281 31.34375 C 39.269531 23.550781 35.90625 13.480469 31.25 4.167969 Z M 28.125 4.167969 "/>
<path style=" stroke:none;fill-rule:nonzero;fill:rgb(16.862746%,78.823531%,42.352942%);fill-opacity:1;" d="M 23.957031 4.167969 C 23.957031 4.167969 16.21875 15.625 10.625 31.25 C 10.613281 31.28125 10.605469 31.3125 10.59375 31.34375 C 12.8125 23.550781 16.175781 13.480469 20.832031 4.167969 Z M 23.957031 4.167969 "/>
</g>
</svg>
